<svg width="293" height="294" viewBox="0 0 293 294" fill="none" xmlns="http://www.w3.org/2000/svg">
<path d="M97.5532 244.945C112.08 252.217 128.048 256.15 144.291 256.457C160.533 256.763 176.639 253.435 191.429 246.716C206.22 239.997 219.322 230.057 229.777 217.623C240.231 205.188 247.774 190.574 251.854 174.85L243.835 172.769C240.066 187.299 233.096 200.802 223.436 212.292C213.776 223.781 201.67 232.966 188.003 239.174C174.337 245.382 159.455 248.457 144.447 248.174C129.439 247.891 114.684 244.257 101.262 237.537L97.5532 244.945Z" fill="#DBDCFD"/>
<path d="M256 147C256 130.691 252.34 114.589 245.29 99.8823C238.24 85.1754 227.979 72.2381 215.265 62.0238C202.55 51.8096 187.705 44.5788 171.824 40.8644C155.943 37.1501 139.431 37.0468 123.505 40.5622L125.291 48.6515C140.007 45.4032 155.264 45.4986 169.938 48.9307C184.611 52.3628 198.328 59.044 210.076 68.482C221.825 77.92 231.306 89.8741 237.82 103.463C244.334 117.052 247.716 131.93 247.716 147H256Z" fill="#DBDCFD"/>
<path d="M97.5327 49.0658C82.9674 56.3354 70.2153 66.7751 60.2128 79.6184C50.2104 92.4616 43.2116 107.382 39.7305 123.284C36.2494 139.186 36.3743 155.666 40.0962 171.514C43.818 187.362 51.0421 202.174 61.2382 214.864L67.696 209.676C58.2748 197.95 51.5997 184.263 48.1607 169.62C44.7218 154.977 44.6063 139.749 47.8229 125.056C51.0394 110.362 57.5063 96.5756 66.7485 84.7084C75.9908 72.8413 87.7737 63.195 101.232 56.4778L97.5327 49.0658Z" fill="#DBDCFD"/>
</svg>
