<svg width="555" height="646" viewBox="0 0 555 646" fill="none" xmlns="http://www.w3.org/2000/svg">
<mask id="path-1-inside-1_2321_85" fill="white">
<path fill-rule="evenodd" clip-rule="evenodd" d="M0 315C0 337.091 17.9086 355 40 355H65C87.0914 355 105 372.909 105 395L105 606C105 628.091 122.909 646 145 646H515C537.091 646 555 628.091 555 606V121C555 98.9086 537.091 81 515 81H507C484.909 81 467 63.0914 467 41V40C467 17.9086 449.091 0 427 0H40C17.9086 0 0 17.9086 0 40L0 315Z"/>
</mask>
<path fill-rule="evenodd" clip-rule="evenodd" d="M0 315C0 337.091 17.9086 355 40 355H65C87.0914 355 105 372.909 105 395L105 606C105 628.091 122.909 646 145 646H515C537.091 646 555 628.091 555 606V121C555 98.9086 537.091 81 515 81H507C484.909 81 467 63.0914 467 41V40C467 17.9086 449.091 0 427 0H40C17.9086 0 0 17.9086 0 40L0 315Z" fill="#E1AD01"/>
<path d="M40 352C19.5655 352 3 335.435 3 315H-3C-3 338.748 16.2518 358 40 358L40 352ZM65 352H40L40 358H65V352ZM108 606L108 395H102L102 606H108ZM145 643C124.565 643 108 626.435 108 606H102C102 629.748 121.252 649 145 649V643ZM515 643H145V649H515V643ZM552 606C552 626.435 535.435 643 515 643V649C538.748 649 558 629.748 558 606H552ZM552 121V606H558V121H552ZM515 84C535.435 84 552 100.565 552 121H558C558 97.2518 538.748 78 515 78V84ZM507 84H515V78H507V84ZM464 40V41H470V40H464ZM427 3C447.435 3 464 19.5655 464 40H470C470 16.2518 450.748 -3 427 -3V3ZM40 3H427V-3H40V3ZM3 40C3 19.5655 19.5655 3 40 3V-3C16.2518 -3 -3 16.2518 -3 40H3ZM3 315L3 40H-3L-3 315H3ZM507 78C486.565 78 470 61.4345 470 41H464C464 64.7482 483.252 84 507 84V78ZM65 358C85.4345 358 102 374.565 102 395H108C108 371.252 88.7482 352 65 352V358Z" fill="black" mask="url(#path-1-inside-1_2321_85)"/>
</svg>
